<svg xmlns="http://www.w3.org/2000/svg" xmlns:xlink="http://www.w3.org/1999/xlink" viewBox="0 0 500 500"><defs><clipPath id="freepik--clip-path--inject-113"><path d="M112.83,271.07s-3-12.67-2.66-19.67,6.66-16,24.33-15,27,18,25.67,31.67,0,40.33,9.33,46,30.33,1.67,30.33,1.67,3,.66.67,3-21.67,5.66-31.33,7c-7.38,1-26,.48-34.42.17a16.62,16.62,0,0,1-11.56-5.09,17.37,17.37,0,0,1-3-4.42C115.27,306.12,112.83,271.07,112.83,271.07Z" style="fill:#fff;stroke:#263238;stroke-linecap:round;stroke-linejoin:round"></path></clipPath></defs><g id="freepik--background-simple--inject-113"><path d="M410.71,240.15c-14.57,37.61-48.61,66.14-84,79.71-27.46,10.54-56.67,9.5-85.79.45-27.63-8.59-53-22.51-81.38-16.24-22.26,4.94-47.37,12-67.49-8.32-10-10.15-16.71-23.9-21.11-38-14-44.71-7-92,23-121.36,25.64-25.14,62.29-37.26,97.64-35.11a113.9,113.9,0,0,1,20.14,3c17.47,4.24,36.53,10.9,54.45,8.48,21.12-2.84,35.78-18.89,55-26.26C341,78.9,361.64,87.89,377.47,105,410.61,140.88,428.26,194.83,410.71,240.15Z" style="fill:#92E3A9"></path><path d="M410.71,240.15c-14.57,37.61-48.61,66.14-84,79.71-27.46,10.54-56.67,9.5-85.79.45-27.63-8.59-53-22.51-81.38-16.24-22.26,4.94-47.37,12-67.49-8.32-10-10.15-16.71-23.9-21.11-38-14-44.71-7-92,23-121.36,25.64-25.14,62.29-37.26,97.64-35.11a113.9,113.9,0,0,1,20.14,3c17.47,4.24,36.53,10.9,54.45,8.48,21.12-2.84,35.78-18.89,55-26.26C341,78.9,361.64,87.89,377.47,105,410.61,140.88,428.26,194.83,410.71,240.15Z" style="fill:#fff;opacity:0.7000000000000001"></path></g><g id="freepik--Window--inject-113"><g style="opacity:0.1"><polygon points="287.97 125.53 203.32 125.53 204.18 117.67 288.83 117.67 287.97 125.53" style="fill:#263238"></polygon><polygon points="287.97 136.55 203.32 136.55 204.18 128.68 288.83 128.68 287.97 136.55" style="fill:#263238"></polygon><polygon points="287.97 147.56 203.32 147.56 204.18 139.69 288.83 139.69 287.97 147.56" style="fill:#263238"></polygon><polygon points="287.97 158.57 203.32 158.57 204.18 150.71 288.83 150.71 287.97 158.57" style="fill:#263238"></polygon><polygon points="287.97 169.59 203.32 169.59 204.18 161.72 288.83 161.72 287.97 169.59" style="fill:#263238"></polygon><polygon points="287.97 180.6 203.32 180.6 204.18 172.73 288.83 172.73 287.97 180.6" style="fill:#263238"></polygon><polygon points="287.97 191.61 203.32 191.61 204.18 183.75 288.83 183.75 287.97 191.61" style="fill:#263238"></polygon><polygon points="287.97 202.63 203.32 202.63 204.18 194.76 288.83 194.76 287.97 202.63" style="fill:#263238"></polygon><polygon points="287.97 213.64 203.32 213.64 204.18 205.77 288.83 205.77 287.97 213.64" style="fill:#263238"></polygon><polygon points="287.97 224.65 203.32 224.65 204.18 216.79 288.83 216.79 287.97 224.65" style="fill:#263238"></polygon><polygon points="287.97 235.67 203.32 235.67 204.18 227.8 288.83 227.8 287.97 235.67" style="fill:#263238"></polygon><polygon points="377.48 125.53 292.83 125.53 293.69 117.67 378.33 117.67 377.48 125.53" style="fill:#263238"></polygon><polygon points="377.48 136.55 292.83 136.55 293.69 128.68 378.33 128.68 377.48 136.55" style="fill:#263238"></polygon><polygon points="377.48 147.56 292.83 147.56 293.69 139.69 378.33 139.69 377.48 147.56" style="fill:#263238"></polygon><polygon points="377.48 158.57 292.83 158.57 293.69 150.71 378.33 150.71 377.48 158.57" style="fill:#263238"></polygon><polygon points="377.48 169.59 292.83 169.59 293.69 161.72 378.33 161.72 377.48 169.59" style="fill:#263238"></polygon><polygon points="377.48 180.6 292.83 180.6 293.69 172.73 378.33 172.73 377.48 180.6" style="fill:#263238"></polygon><polygon points="377.48 191.61 292.83 191.61 293.69 183.75 378.33 183.75 377.48 191.61" style="fill:#263238"></polygon><polygon points="377.48 202.63 292.83 202.63 293.69 194.76 378.33 194.76 377.48 202.63" style="fill:#263238"></polygon><polygon points="377.48 213.64 292.83 213.64 293.69 205.77 378.33 205.77 377.48 213.64" style="fill:#263238"></polygon><polygon points="377.48 224.65 292.83 224.65 293.69 216.79 378.33 216.79 377.48 224.65" style="fill:#263238"></polygon><polygon points="377.48 235.67 292.83 235.67 293.69 227.8 378.33 227.8 377.48 235.67" style="fill:#263238"></polygon></g><g style="opacity:0.4"><path d="M105,151.76h33.84a0,0,0,0,1,0,0V162a0,0,0,0,1,0,0H105a5.13,5.13,0,0,1-5.13-5.13v0a5.13,5.13,0,0,1,5.13-5.13Z" style="fill:#92E3A9"></path><path d="M138.88,138.94H105a5.13,5.13,0,0,0-5.13,5.13h0A5.13,5.13,0,0,0,105,149.2h33.84Z" style="fill:#92E3A9"></path><rect x="141.95" y="127.15" width="12.31" height="34.35" style="fill:#92E3A9"></rect><rect x="157.33" y="127.15" width="12.31" height="34.35" style="fill:#92E3A9"></rect><rect x="172.72" y="127.15" width="12.31" height="34.35" style="fill:#92E3A9"></rect></g><g style="opacity:0.1"><path d="M105,151.76h33.84a0,0,0,0,1,0,0V162a0,0,0,0,1,0,0H105a5.13,5.13,0,0,1-5.13-5.13v0a5.13,5.13,0,0,1,5.13-5.13Z" style="fill:#263238"></path><path d="M138.88,138.94H105a5.13,5.13,0,0,0-5.13,5.13h0A5.13,5.13,0,0,0,105,149.2h33.84Z" style="fill:#263238"></path><rect x="141.95" y="127.15" width="12.31" height="34.35" style="fill:#263238"></rect><rect x="157.33" y="127.15" width="12.31" height="34.35" style="fill:#263238"></rect><rect x="172.72" y="127.15" width="12.31" height="34.35" style="fill:#263238"></rect></g><polygon points="192.45 162.42 95.83 162.42 95.83 168.14 103.67 168.14 103.67 182.33 108.33 182.33 108.33 168.14 177.67 168.14 177.67 182.33 182.33 182.33 182.33 168.14 192.45 168.14 192.45 162.42" style="fill:#263238;opacity:0.1"></polygon></g><g id="freepik--Plants--inject-113"><path d="M386.5,251.35s-3.5,4-5.5,12,7,14,4,22.5-8.5,12.5-7,21,8,9,3,18.5-9.5,13-8,22,20.5,20.5,20.5,20.5,13-14.5,13.5-24-11.5-15.5-9.5-24,7-15.5,6.5-23.5-10-14-10-20,4-9.5,4-16.5-9-13-9-17a29.56,29.56,0,0,1,2-9S381.5,239.85,386.5,251.35Z" style="fill:#92E3A9"></path><path d="M386.5,251.35s-3.5,4-5.5,12,7,14,4,22.5-8.5,12.5-7,21,8,9,3,18.5-9.5,13-8,22,20.5,20.5,20.5,20.5,13-14.5,13.5-24-11.5-15.5-9.5-24,7-15.5,6.5-23.5-10-14-10-20,4-9.5,4-16.5-9-13-9-17a29.56,29.56,0,0,1,2-9S381.5,239.85,386.5,251.35Z" style="fill:#fff;opacity:0.5"></path><line x1="391.5" y1="364.85" x2="390.5" y2="256.85" style="fill:none;stroke:#263238;stroke-linecap:round;stroke-linejoin:round"></line><polyline points="401.59 340.13 391.79 349.92 380.69 340.13" style="fill:none;stroke:#263238;stroke-linecap:round;stroke-linejoin:round"></polyline><polyline points="398.32 297.02 391.14 308.12 384.93 298" style="fill:none;stroke:#263238;stroke-linecap:round;stroke-linejoin:round"></polyline><polyline points="386.56 264.36 390.81 269.58 394.4 263.38" style="fill:none;stroke:#263238;stroke-linecap:round;stroke-linejoin:round"></polyline><rect x="379" y="364.85" width="25" height="28" style="fill:#263238"></rect></g><g id="freepik--Table--inject-113"><path d="M282.47,279.41l9.42,112a1.21,1.21,0,0,0,1.47,1,1.2,1.2,0,0,0,.91-1.29l-6.41-111.74Z" style="fill:#263238;stroke:#263238;stroke-linecap:round;stroke-linejoin:round"></path><path d="M345.7,279.41l9.45,112.38a1.22,1.22,0,0,0,1.47,1,1.21,1.21,0,0,0,.91-1.3L351.1,279.41Z" style="fill:#263238;stroke:#263238;stroke-linecap:round;stroke-linejoin:round"></path><path d="M181.44,279.41l-5,111a1.22,1.22,0,0,0,.92,1.3h0a1.18,1.18,0,0,0,1.46-1l8-111.33Z" style="fill:#263238;stroke:#263238;stroke-linecap:round;stroke-linejoin:round"></path><path d="M123.17,279.41l-5,110.66a1.22,1.22,0,0,0,.92,1.3,1.18,1.18,0,0,0,1.46-1l7.93-111Z" style="fill:#263238;stroke:#263238;stroke-linecap:round;stroke-linejoin:round"></path><rect x="119.65" y="273.2" width="238.35" height="9.62" style="fill:#fff;stroke:#263238;stroke-linecap:round;stroke-linejoin:round"></rect><rect x="119.65" y="273.2" width="238.35" height="3.3" style="fill:#263238;stroke:#263238;stroke-linecap:round;stroke-linejoin:round"></rect><rect x="274.17" y="273.2" width="83.83" height="9.62" style="fill:#263238;stroke:#263238;stroke-linecap:round;stroke-linejoin:round"></rect><rect x="116.67" y="270" width="244.32" height="3.67" style="fill:#fff;stroke:#263238;stroke-linecap:round;stroke-linejoin:round"></rect><rect x="277.67" y="270" width="83.32" height="3.67" style="fill:#263238;stroke:#263238;stroke-linecap:round;stroke-linejoin:round"></rect><polygon points="252.49 257.22 259.76 269.74 247.23 269.74 252.49 257.22" style="fill:#263238;stroke:#263238;stroke-linecap:round;stroke-linejoin:round"></polygon><path d="M175.6,269.67h71.63a1.41,1.41,0,0,0,1.28-.84l19.83-45.21a1.39,1.39,0,0,0-1.28-2H195.44a1.38,1.38,0,0,0-1.28.83l-19.83,45.22A1.39,1.39,0,0,0,175.6,269.67Z" style="fill:#263238;stroke:#263238;stroke-linecap:round;stroke-linejoin:round"></path><path d="M180.76,267.87h62a1.3,1.3,0,0,0,1.19-.77l18.16-40.43a1.3,1.3,0,0,0-1.19-1.82h-62a1.29,1.29,0,0,0-1.19.78l-18.15,40.42A1.29,1.29,0,0,0,180.76,267.87Z" style="fill:#fff;stroke:#263238;stroke-linecap:round;stroke-linejoin:round"></path><path d="M262.1,226.67a1.3,1.3,0,0,0-1.19-1.82H257c1.11,1.7,2.33,3.64,3.39,5.52Z" style="fill:none"></path><path d="M229.38,229c9,12,12.25,20.54,21.7,22.17l-1,2.14,8.32-18.52c-3.22-2.94-7.3-7.34-9.68-10H225A18.65,18.65,0,0,1,229.38,229Z" style="fill:none"></path><path d="M226.64,260.14c-7.5-.24-19.84,3.73-30.16,7.73h39.94C236.18,264.46,234.52,260.39,226.64,260.14Z" style="fill:none"></path><path d="M230.75,245c-18.14-7.26-21,3.46-39.77-4.38l-11.4,25.39a1.29,1.29,0,0,0,1.18,1.82h2l2.67-5s28.82-11.43,43.46-10.06c10.11,1,10.84,9.53,9.72,15.05h4.11a1.3,1.3,0,0,0,1.19-.77l4.62-10.3A52.2,52.2,0,0,0,230.75,245Z" style="fill:none"></path><path d="M230.75,245a52.2,52.2,0,0,1,17.81,11.76l1.56-3.46,1-2.14c-9.45-1.63-12.73-10.21-21.7-22.17a18.65,18.65,0,0,0-4.39-4.18H198.92a1.34,1.34,0,0,0-.71.21,1.27,1.27,0,0,0-.48.57l-6.75,15C209.75,248.5,212.61,237.78,230.75,245Z" style="fill:#92E3A9;stroke:#263238;stroke-linecap:round;stroke-linejoin:round"></path><path d="M228.92,252.82c-14.64-1.37-43.46,10.06-43.46,10.06l-2.67,5h13.69c10.32-4,22.66-8,30.16-7.73,7.88.25,9.54,4.32,9.78,7.73h2.22C239.76,262.35,239,253.77,228.92,252.82Z" style="fill:#92E3A9;stroke:#263238;stroke-linecap:round;stroke-linejoin:round"></path><path d="M258.44,234.82l2-4.45c-1.06-1.88-2.28-3.82-3.39-5.52h-8.28C251.14,227.48,255.22,231.88,258.44,234.82Z" style="fill:#92E3A9;stroke:#263238;stroke-linecap:round;stroke-linejoin:round"></path><rect x="332.73" y="265.17" width="19.96" height="5.12" transform="translate(685.43 535.46) rotate(180)" style="fill:#263238"></rect><path d="M343.23,266.92a2,2,0,0,0,2-1.87l3.33-48.62a2,2,0,1,0-4-.27l-3.33,48.62a2,2,0,0,0,1.86,2.13Z" style="fill:#263238"></path><path d="M346.81,218.81A2,2,0,0,0,348,215.2l-32.8-23.08a1,1,0,1,0-1.17,1.57l31.58,24.72A2,2,0,0,0,346.81,218.81Z" style="fill:#263238"></path><circle cx="346.81" cy="216.55" r="3.07" style="fill:#263238"></circle><circle cx="314.05" cy="194.03" r="3.07" style="fill:#263238"></circle><path d="M301,198.24l11.58,9.29,3.88-10a4.37,4.37,0,0,0-1.35-5h0a4.36,4.36,0,0,0-5.16-.23Z" style="fill:#263238"></path><path d="M292.35,269.67h45.76a.9.9,0,0,0,.82-.53l12.67-28.89a.9.9,0,0,0-.82-1.25H305a.89.89,0,0,0-.81.53l-12.67,28.89A.89.89,0,0,0,292.35,269.67Z" style="fill:#fff;stroke:#263238;stroke-linecap:round;stroke-linejoin:round"></path><path d="M296.64,267.42h39a.75.75,0,0,0,.7-.46l10.81-24.65a.76.76,0,0,0-.69-1.06H307.45a.78.78,0,0,0-.7.45l-10.81,24.65A.77.77,0,0,0,296.64,267.42Z" style="fill:#fff;stroke:#263238;stroke-linecap:round;stroke-linejoin:round"></path><path d="M324.32,263c-4.69-.15-12.23,2.08-18.83,4.47h25.3C330.51,265.35,329.21,263.1,324.32,263Z" style="fill:none"></path><path d="M347.19,242.31a.76.76,0,0,0-.69-1.06h-1.4c.51.76,1,1.57,1.52,2.37Z" style="fill:none"></path><path d="M339.8,241.25H324.29a11.82,11.82,0,0,1,1.86,1.88c6,7.62,8.16,13.08,14.45,14.12l-1.67,3.57a34.72,34.72,0,0,0-11.86-7.49c-11.41-4.37-13.75,1.47-24.51-2.07l-6.62,15.09s0,.06,0,.08l1-1.74s19.2-7.28,29-6.41c6.45.58,7.16,5.62,6.55,9.14h3.28a.75.75,0,0,0,.7-.46l8.92-20.33C343.5,245,341.35,242.87,339.8,241.25Z" style="fill:none"></path><path d="M327.07,253.33a34.72,34.72,0,0,1,11.86,7.49l1.67-3.57c-6.29-1-8.47-6.5-14.45-14.12a11.82,11.82,0,0,0-1.86-1.88H307.45a.78.78,0,0,0-.7.45l-4.19,9.56C313.32,254.8,315.66,249,327.07,253.33Z" style="fill:#92E3A9;stroke:#263238;stroke-linecap:round;stroke-linejoin:round"></path><path d="M325.85,258.28c-9.75-.87-29,6.41-29,6.41l-1,1.74a.75.75,0,0,0,.71,1h8.85c6.6-2.39,14.14-4.62,18.83-4.47,4.89.15,6.19,2.4,6.47,4.47h1.61C333,263.9,332.3,258.86,325.85,258.28Z" style="fill:#92E3A9;stroke:#263238;stroke-linecap:round;stroke-linejoin:round"></path><path d="M345.3,246.63l1.32-3c-.49-.8-1-1.61-1.52-2.37h-5.3C341.35,242.87,343.5,245,345.3,246.63Z" style="fill:#92E3A9;stroke:#263238;stroke-linecap:round;stroke-linejoin:round"></path><rect x="270" y="267.75" width="68.75" height="2.25" style="fill:#fff;stroke:#263238;stroke-linecap:round;stroke-linejoin:round"></rect><rect x="305.42" y="267.75" width="33.33" height="2.25" style="fill:#fff;stroke:#263238;stroke-linecap:round;stroke-linejoin:round"></rect><rect x="264.28" y="252.13" width="12.13" height="17.92" style="fill:#fff;stroke:#263238;stroke-linecap:round;stroke-linejoin:round"></rect><path d="M275.86,267.61H274.6a1,1,0,0,1,0-2h1.26a1.91,1.91,0,0,0,1.9-1.9v-4.34a1.9,1.9,0,0,0-1.9-1.9h-1.62a1,1,0,0,1,0-2h1.62a3.91,3.91,0,0,1,3.9,3.9v4.34A3.91,3.91,0,0,1,275.86,267.61Z" style="fill:#fff;stroke:#263238;stroke-linecap:round;stroke-linejoin:round"></path></g><g id="freepik--Character--inject-113"><path d="M193.73,176.29s2.74,8.51,2.74,10.16a30.29,30.29,0,0,1-.27,3.57l2.43,3.76a1.05,1.05,0,0,1-.35,1.47l-3.73,2.19s-.55,8.79-1.1,9.89-9.89.83-9.89.83l-3,5.77-15.66-6.05L169,196.62l-.83-17S177.79,171.07,193.73,176.29Z" style="fill:#fff;stroke:#263238;stroke-linecap:round;stroke-linejoin:round"></path><path d="M182.74,197.44l2.19.55a7.55,7.55,0,0,0,1.65,5.77" style="fill:#fff;stroke:#263238;stroke-linecap:round;stroke-linejoin:round"></path><line x1="185.27" y1="191.56" x2="200.74" y2="187.73" style="fill:none;stroke:#263238;stroke-linecap:round;stroke-linejoin:round"></line><path d="M196.76,187.42l3.52.15s1.23,4-2.45,4.45" style="fill:none;stroke:#263238;stroke-linecap:round;stroke-linejoin:round"></path><path d="M175.59,170s-6-1.93-9.07,6.32,2.48,19,2.48,20.33,4.67,2.47,8.24,2.47a8.86,8.86,0,0,0,5.5-1.65s-1.38-5.49-.28-6.59,3.85,1.37,3.85,1.37a8,8,0,0,0,2.47-.82c.82-.55,4.95-2.75,3.57-5.22s-4.12-4.67-1.92-6.32,8-1.93,8.24-7.15-3-6.31-6.32-5.77-2.2-4.67-8.52-3.84S174.49,167.49,175.59,170Z" style="fill:#263238;stroke:#263238;stroke-linecap:round;stroke-linejoin:round"></path><path d="M176.55,188.68a11.49,11.49,0,0,0-1,2.61" style="fill:none;stroke:#fff;stroke-linecap:round;stroke-linejoin:round;stroke-width:0.5px"></path><path d="M190.63,178.86s-1.91,1.68-7.89,4.07a11.57,11.57,0,0,0-5.23,4.15" style="fill:none;stroke:#fff;stroke-linecap:round;stroke-linejoin:round;stroke-width:0.5px"></path><path d="M190.15,183.4s-6.93,4.55-10,5.5" style="fill:none;stroke:#fff;stroke-linecap:round;stroke-linejoin:round;stroke-width:0.5px"></path><path d="M240,226.73a66.83,66.83,0,0,0,10.55,12.71s-3.83-8.53-9.51-13.57C240.53,225.43,239.64,226.16,240,226.73Z" style="fill:#263238;stroke:#263238;stroke-linecap:round;stroke-linejoin:round"></path><path d="M217.92,259.75l20.25-15.25s0-7,1-8.5,9.25-4,9.25-4,2.25-2.75,3.5,0a5.08,5.08,0,0,1-.5,5,46.36,46.36,0,0,1,0,6c-.25,1.5-9,5.25-9,5.25s-12,17.75-18,22.75-7.25,6-9.75,7-7-6.25-7-6.25Z" style="fill:#fff;stroke:#263238;stroke-linecap:round;stroke-linejoin:round"></path><path d="M181.17,376.77s14.25,9,16.75,9,3.75,2.25,2.5,2.5-9,.5-14.25.75-8.75-.25-11.75-.25-6.5.25-8-.5,1-9.25,1-10.75S179.42,375.77,181.17,376.77Z" style="fill:#263238;stroke:#263238;stroke-linecap:round;stroke-linejoin:round"></path><path d="M199.55,386.13c-5.53,1.83-14.5.63-19.88.14-4.26-.39-10.9-.48-13.69-.5-.11,1.29,0,2.26.44,2.5,1.5.75,5,.5,8,.5s6.5.5,11.75.25,13-.5,14.25-.75C201.35,388.08,200.89,386.78,199.55,386.13Z" style="fill:#fff;stroke:#263238;stroke-linecap:round;stroke-linejoin:round"></path><path d="M192.42,315l-11.24,56.35,2.34,5.85a11.76,11.76,0,0,1-7.1,4.8,54.33,54.33,0,0,1-9.75,1s-1.25-6.25-.5-7,1-3.75,1-3.75l6.5-56.75Z" style="fill:#92E3A9;stroke:#263238;stroke-linecap:round;stroke-linejoin:round"></path><path d="M226.67,374.86s8.75,7.25,12.75,8.5,8.25,2.5,8.25,3.75-9.5,2.5-16.75,1.75-18.25-4-20.75-4-2-6.5-2-7.5S220.42,368.36,226.67,374.86Z" style="fill:#263238;stroke:#263238;stroke-linecap:round;stroke-linejoin:round"></path><path d="M247.67,387.11c0-.45-.56-.9-1.45-1.35a76.57,76.57,0,0,1-21.55-.15,164.17,164.17,0,0,1-16.3-3.17c.26,1.34.78,2.42,1.8,2.42,2.5,0,13.5,3.25,20.75,4S247.67,388.36,247.67,387.11Z" style="fill:#fff;stroke:#263238;stroke-linecap:round;stroke-linejoin:round"></path><path d="M183.17,289.75a114,114,0,0,1,22.5.5c12.75,1.5,31.5,3.25,32,6.5s-12.38,70.9-12.38,72.65,2,3.5,2.5,4.5a5.78,5.78,0,0,1,.5,2.25s-6.12,6.6-10.87,8.35-8.74.12-9.74.12-1-6.75-.25-10,2-11.5,2.25-12.25,4.24-48.87,4.24-48.87-27.5,6-49.75,3.5-24.5-6-25.75-11.25S139.67,290,139.67,290Z" style="fill:#92E3A9;stroke:#263238;stroke-linecap:round;stroke-linejoin:round"></path><path d="M180.35,305.94a16.34,16.34,0,0,1-1.68,2.06" style="fill:none;stroke:#263238;stroke-linecap:round;stroke-linejoin:round"></path><path d="M187.17,292.5a92.31,92.31,0,0,1-5,10.5" style="fill:none;stroke:#263238;stroke-linecap:round;stroke-linejoin:round"></path><path d="M184.17,295a26.6,26.6,0,0,1-13,11" style="fill:none;stroke:#263238;stroke-linecap:round;stroke-linejoin:round"></path><path d="M231.22,308.77c.84-.33,1.67-.67,2.45-1" style="fill:#fff;stroke:#263238;stroke-linecap:round;stroke-linejoin:round"></path><path d="M213.92,313.5a128.4,128.4,0,0,0,14.17-3.63" style="fill:#fff;stroke:#263238;stroke-linecap:round;stroke-linejoin:round"></path><path d="M162.17,206.5s-19.5,9.25-22.25,11-4.5,23.5-4.5,27.25,2.75,40.5,3.5,46.75,24.75,10.5,32.75,8.25,15.75-8,15.75-10-.75-19-.25-22.25,5-17,5-17l8.5,24.25a90.63,90.63,0,0,0,10.5-3.5c7.25-3,9-13,9-13s-8-14-10.25-21-3.25-12.25-4.25-13.5-23.5-11.75-27.5-14.5A17.75,17.75,0,0,0,162.17,206.5Z" style="fill:#263238;stroke:#263238;stroke-linecap:round;stroke-linejoin:round"></path><line x1="192.17" y1="250.5" x2="185.67" y2="241" style="fill:none;stroke:#fff;stroke-linecap:round;stroke-linejoin:round;stroke-width:0.75px"></line><line x1="191.11" y1="249.15" x2="179.67" y2="243.5" style="fill:none;stroke:#fff;stroke-linecap:round;stroke-linejoin:round;stroke-width:0.75px"></line></g><g id="freepik--Chair--inject-113"><path d="M157.19,320.82l10,71a1.19,1.19,0,0,0,1.46,1h0a1.2,1.2,0,0,0,.91-1.28l-7-71.88Z" style="fill:#263238;stroke:#263238;stroke-linecap:round;stroke-linejoin:round"></path><path d="M128.5,321.4l-16.69,69.73a1.19,1.19,0,0,0,1,1.46h0a1.2,1.2,0,0,0,1.32-.86l19.38-67.66Z" style="fill:#263238;stroke:#263238;stroke-linecap:round;stroke-linejoin:round"></path><path d="M158.81,320.54l-10.62,70.9a1.2,1.2,0,0,0,1.11,1.38h0a1.19,1.19,0,0,0,1.24-1L164,322.77Z" style="fill:#263238;stroke:#263238;stroke-linecap:round;stroke-linejoin:round"></path><path d="M187.52,320.82l10,71a1.2,1.2,0,0,0,1.46,1h0a1.21,1.21,0,0,0,.92-1.28l-7-71.88Z" style="fill:#263238;stroke:#263238;stroke-linecap:round;stroke-linejoin:round"></path><path d="M112.83,271.07s-3-12.67-2.66-19.67,6.66-16,24.33-15,27,18,25.67,31.67,0,40.33,9.33,46,30.33,1.67,30.33,1.67,3,.66.67,3-21.67,5.66-31.33,7c-7.38,1-26,.48-34.42.17a16.62,16.62,0,0,1-11.56-5.09,17.37,17.37,0,0,1-3-4.42C115.27,306.12,112.83,271.07,112.83,271.07Z" style="fill:#fff"></path><g style="clip-path:url(#freepik--clip-path--inject-113)"><path d="M169.17,325.74c2.36-.33,5.31-.78,8.45-1.3a30.1,30.1,0,0,1-10.93-2.67c-10.43-5.46-11.92-31.15-10.43-44.32s-8.95-29.54-28.71-30.51c-7.35-.36-13,.62-17.1,2.34a12.22,12.22,0,0,0-.28,2.12c-.34,7,2.66,19.67,2.66,19.67s2.44,35.05,7.34,45.33a17.37,17.37,0,0,0,3,4.42,16.62,16.62,0,0,0,11.56,5.09C143.17,326.22,161.79,326.75,169.17,325.74Z" style="fill:#92E3A9"></path><path d="M169.17,325.74c2.36-.33,5.31-.78,8.45-1.3a30.1,30.1,0,0,1-10.93-2.67c-10.43-5.46-11.92-31.15-10.43-44.32s-8.95-29.54-28.71-30.51c-7.35-.36-13,.62-17.1,2.34a12.22,12.22,0,0,0-.28,2.12c-.34,7,2.66,19.67,2.66,19.67s2.44,35.05,7.34,45.33a17.37,17.37,0,0,0,3,4.42,16.62,16.62,0,0,0,11.56,5.09C143.17,326.22,161.79,326.75,169.17,325.74Z" style="fill:#fff;opacity:0.5"></path></g><path d="M112.83,271.07s-3-12.67-2.66-19.67,6.66-16,24.33-15,27,18,25.67,31.67,0,40.33,9.33,46,30.33,1.67,30.33,1.67,3,.66.67,3-21.67,5.66-31.33,7c-7.38,1-26,.48-34.42.17a16.62,16.62,0,0,1-11.56-5.09,17.37,17.37,0,0,1-3-4.42C115.27,306.12,112.83,271.07,112.83,271.07Z" style="fill:none;stroke:#263238;stroke-linecap:round;stroke-linejoin:round"></path></g><g id="freepik--Ground--inject-113"><rect x="78.58" y="389.39" width="344.57" height="5.46" style="fill:#263238"></rect></g></svg>